<?xml version="1.0" standalone="no"?>
<!DOCTYPE svg PUBLIC "-//W3C//DTD SVG 20010904//EN"
 "http://www.w3.org/TR/2001/REC-SVG-20010904/DTD/svg10.dtd">
<svg version="1.0" xmlns="http://www.w3.org/2000/svg"
 width="1050.000000pt" height="1050.000000pt" viewBox="0 0 1050.000000 1050.000000"
 preserveAspectRatio="xMidYMid meet">

<g transform="translate(0.000000,1050.000000) scale(0.100000,-0.100000)"
fill="#000000" stroke="none">
<path d="M4955 10434 c-22 -2 -96 -9 -165 -14 -825 -71 -1668 -367 -2381 -836
-671 -441 -1244 -1051 -1650 -1757 -85 -148 -250 -478 -283 -567 -13 -36 -38
-101 -56 -145 -88 -224 -163 -462 -199 -630 -12 -55 -28 -122 -36 -150 -8 -27
-21 -90 -29 -140 -9 -49 -22 -128 -30 -175 -40 -240 -51 -408 -50 -795 0 -330
3 -404 23 -565 12 -102 28 -214 36 -250 8 -36 19 -97 24 -136 6 -39 17 -90 26
-113 8 -24 15 -53 15 -65 0 -38 66 -294 116 -446 53 -165 115 -329 174 -460
22 -49 59 -132 81 -182 85 -191 286 -538 360 -624 22 -25 46 -60 55 -77 104
-207 510 -670 835 -952 241 -209 382 -320 564 -442 674 -451 1455 -741 2245
-832 343 -39 388 -42 640 -40 566 3 1044 75 1550 233 800 248 1523 687 2125
1290 422 422 725 845 985 1371 253 514 411 1020 489 1570 63 442 67 949 11
1390 -47 364 -160 842 -255 1070 -18 44 -40 104 -50 134 -46 149 -214 503
-351 742 -332 580 -814 1125 -1364 1546 -646 493 -1433 837 -2240 978 -303 53
-461 66 -830 70 -190 1 -363 1 -385 -1z m805 -369 c980 -105 1868 -479 2620
-1103 149 -124 481 -455 602 -602 268 -324 458 -617 640 -985 499 -1011 626
-2178 358 -3280 -206 -850 -631 -1615 -1244 -2244 -725 -742 -1635 -1218
-2666 -1395 -295 -51 -429 -61 -805 -61 -304 0 -374 3 -535 23 -526 66 -973
187 -1427 388 -1463 647 -2518 1987 -2807 3565 -56 305 -70 475 -70 864 0 385
8 501 59 808 218 1304 965 2469 2053 3205 724 489 1517 765 2392 832 166 12
659 4 830 -15z"/>
<path d="M1330 6905 l0 -1055 390 0 390 0 0 710 0 710 612 0 c403 0 632 -4
672 -11 269 -49 389 -113 521 -279 92 -115 135 -256 135 -437 0 -215 -73 -380
-233 -530 -61 -56 -207 -143 -243 -143 -7 0 -16 -4 -19 -10 -4 -7 165 -10 501
-10 l507 0 39 42 c93 101 180 300 212 487 46 271 -9 664 -122 871 -146 267
-311 429 -552 543 -193 92 -338 132 -562 156 -62 7 -484 11 -1173 11 l-1075 0
0 -1055z"/>
<path d="M5602 6908 l3 -1053 390 0 390 0 3 1053 2 1052 -395 0 -395 0 2
-1052z"/>
<path d="M8470 6905 l0 -1055 388 2 387 3 3 1053 2 1052 -390 0 -390 0 0
-1055z"/>
<path d="M1928 5445 l-3 -257 -33 -29 c-67 -60 -159 -21 -169 74 l-6 47 -39 0
-40 0 7 -52 c12 -86 38 -124 108 -153 102 -43 219 12 247 116 6 22 9 134 8
271 l-3 233 -37 3 -37 3 -3 -256z"/>
<path d="M3462 5683 c-18 -33 -242 -592 -242 -603 0 -5 18 -10 39 -10 l39 0
38 95 38 96 129 -3 129 -3 36 -90 37 -90 43 -3 c38 -3 43 -1 38 15 -3 10 -59
151 -124 313 l-118 295 -36 3 c-27 2 -39 -2 -46 -15z m45 -341 c-49 -1 -92 -1
-95 2 -2 3 12 47 33 98 20 51 41 104 47 118 8 22 14 12 56 -95 l48 -120 -89
-3z"/>
<path d="M5010 5385 l0 -315 201 0 200 0 -3 38 -3 37 -162 3 -163 2 0 275 0
275 -35 0 -35 0 0 -315z"/>
<path d="M6576 5673 c4 -15 42 -156 84 -313 l77 -285 41 -3 41 -3 15 53 c9 29
40 139 69 243 l54 190 16 -55 c8 -30 39 -139 68 -242 l53 -188 41 0 40 0 83
308 c45 169 83 310 82 315 0 4 -18 7 -40 7 -36 0 -40 -3 -48 -32 -5 -18 -33
-124 -63 -236 -29 -112 -55 -198 -57 -192 -2 6 -32 111 -67 233 l-63 222 -45
3 -46 3 -11 -43 c-24 -87 -110 -393 -116 -408 -3 -8 -34 89 -68 215 l-62 230
-42 3 c-42 3 -43 3 -36 -25z"/>
<path d="M8752 5683 c-18 -33 -242 -592 -242 -603 0 -5 18 -10 39 -10 l39 0
38 95 38 96 129 -3 129 -3 36 -90 37 -90 43 -3 c38 -3 43 -1 38 15 -3 10 -59
151 -124 313 l-118 295 -36 3 c-27 2 -39 -2 -46 -15z m45 -341 c-49 -1 -92 -1
-95 2 -2 3 12 47 33 98 20 51 41 104 47 118 8 22 14 12 56 -95 l48 -120 -89
-3z"/>
<path d="M1340 3670 l0 -1250 1158 0 c973 0 1173 2 1256 15 105 16 236 51 236
63 0 5 24 16 53 27 65 23 168 71 176 82 3 5 36 28 74 52 37 24 71 49 75 55 4
6 33 31 65 55 32 24 63 54 69 65 6 12 31 38 55 59 23 21 43 44 43 49 0 6 18
35 40 64 22 29 40 57 40 61 0 5 13 24 28 43 62 76 157 325 196 515 42 200 47
532 11 723 -31 169 -149 485 -204 545 l-25 27 -600 -1 c-538 -1 -594 -2 -531
-15 100 -19 155 -35 155 -45 0 -5 11 -11 25 -15 72 -18 222 -145 264 -224 109
-206 137 -286 150 -433 13 -140 -5 -328 -38 -402 -5 -11 -24 -54 -42 -95 -19
-41 -46 -95 -61 -119 -16 -25 -28 -51 -28 -57 0 -7 -7 -17 -15 -21 -8 -5 -38
-31 -67 -59 -68 -65 -100 -85 -173 -115 -33 -13 -62 -27 -65 -31 -3 -4 -37
-15 -75 -24 -60 -15 -156 -18 -655 -23 -322 -3 -633 -5 -692 -3 l-108 3 0 840
0 839 -395 0 -395 0 0 -1250z"/>
<path d="M5646 4528 c3 -252 10 -429 19 -493 33 -237 117 -530 195 -681 52
-101 136 -229 169 -258 11 -11 21 -24 21 -30 0 -17 227 -244 293 -293 31 -24
57 -47 57 -51 0 -5 35 -30 78 -57 42 -27 79 -52 82 -56 7 -10 214 -99 229 -99
6 0 11 -4 11 -8 0 -9 85 -40 180 -66 70 -19 234 -46 283 -46 20 0 37 -4 37
-10 0 -6 65 -10 175 -10 110 0 175 4 175 10 0 6 17 10 38 10 102 1 406 64 436
92 6 4 18 8 27 8 10 0 19 4 21 8 2 5 50 30 107 56 58 25 107 50 110 54 4 5 35
26 70 47 36 21 72 46 82 56 9 9 44 35 78 58 33 23 65 50 70 60 6 10 38 41 71
67 33 27 60 53 60 58 0 6 18 31 40 57 22 26 40 52 40 56 0 5 13 22 30 38 27
26 68 88 137 210 62 109 116 249 160 413 65 246 74 331 80 795 l5 397 -396 0
-396 0 0 -307 c0 -374 -13 -483 -80 -683 -38 -112 -81 -200 -124 -255 -17 -21
-35 -47 -41 -56 -31 -52 -98 -122 -157 -165 -38 -26 -68 -51 -68 -54 0 -8
-159 -87 -192 -95 -16 -4 -28 -11 -28 -15 0 -4 -37 -16 -82 -26 -119 -27 -427
-27 -545 0 -46 10 -83 22 -83 26 0 4 -18 12 -39 18 -39 12 -143 70 -171 95 -8
7 -31 24 -50 37 -42 28 -190 171 -190 183 0 5 -15 27 -34 50 -75 94 -126 216
-171 412 -30 127 -45 322 -45 583 l0 252 -390 0 -390 0 6 -392z"/>
<path d="M5510 2033 c-45 -31 -78 -91 -79 -145 -1 -25 2 -28 34 -28 32 0 35 3
35 28 0 15 9 42 20 60 17 27 25 32 59 32 69 0 103 -74 65 -139 -9 -15 -48 -49
-88 -75 -93 -62 -128 -110 -130 -179 l-1 -52 153 -3 152 -3 0 36 0 35 -121 0
-121 0 19 33 c10 17 41 47 68 65 87 57 115 82 135 122 56 110 -12 230 -130
230 -27 0 -56 -7 -70 -17z"/>
<path d="M6104 2032 c-17 -11 -42 -42 -55 -68 -21 -44 -24 -62 -24 -174 0
-112 3 -130 24 -173 30 -61 70 -87 135 -87 44 0 53 4 86 39 48 50 65 112 64
231 -1 105 -24 177 -70 221 -34 32 -117 37 -160 11z m121 -66 c32 -32 45 -85
45 -181 -1 -123 -35 -195 -91 -195 -60 0 -93 71 -93 200 0 98 15 151 51 180
34 26 59 25 88 -4z"/>
<path d="M6694 2032 c-17 -11 -42 -42 -55 -68 -21 -44 -24 -62 -24 -174 0
-112 3 -130 24 -173 30 -61 70 -87 135 -87 44 0 53 4 86 39 48 50 65 112 64
231 -1 105 -24 177 -70 221 -34 32 -117 37 -160 11z m121 -66 c32 -32 45 -85
45 -181 -1 -123 -35 -195 -91 -195 -60 0 -93 71 -93 200 0 98 15 151 51 180
34 26 59 25 88 -4z"/>
<path d="M7296 1878 c-67 -109 -106 -183 -106 -200 l0 -28 100 0 100 0 0 -61
0 -60 33 3 c32 3 32 4 35 61 3 56 4 57 32 57 28 0 30 3 30 35 0 32 -2 35 -30
35 l-30 0 0 165 0 165 -29 0 c-27 0 -37 -12 -135 -172z m94 -63 l0 -95 -55 0
c-30 0 -55 3 -55 6 0 6 104 183 108 184 1 0 2 -43 2 -95z"/>
<path d="M4200 1960 c0 -43 -3 -50 -20 -50 -16 0 -20 -7 -20 -30 0 -23 5 -30
19 -30 18 0 20 -10 23 -139 3 -132 4 -141 28 -166 18 -19 32 -25 55 -23 27 3
30 7 33 42 3 35 1 38 -12 27 -30 -25 -36 -2 -36 130 0 122 1 129 20 129 16 0
20 7 20 30 0 23 -4 30 -20 30 -17 0 -20 7 -20 50 l0 50 -35 0 -35 0 0 -50z"/>
<path d="M3174 1910 c-11 -4 -33 -22 -47 -40 -71 -84 -57 -262 25 -323 41 -30
116 -34 167 -8 45 23 81 72 81 109 0 18 -6 22 -30 22 -23 0 -33 -6 -40 -24
-21 -57 -108 -76 -148 -33 -12 13 -25 37 -28 55 l-6 32 126 0 126 0 -1 43 c-1
69 -29 126 -79 160 -26 18 -109 22 -146 7z m127 -79 c51 -51 42 -61 -61 -61
-75 0 -90 3 -90 16 0 28 56 74 90 74 22 0 41 -9 61 -29z"/>
<path d="M3714 1910 c-31 -12 -64 -59 -64 -91 0 -66 40 -102 131 -119 61 -12
79 -24 79 -55 0 -33 -31 -55 -77 -55 -44 0 -73 23 -73 58 0 19 -6 22 -36 22
-36 0 -36 -1 -30 -32 19 -97 114 -142 209 -100 57 25 83 71 73 125 -8 40 -52
84 -94 92 -105 22 -131 39 -112 74 23 45 105 37 128 -12 17 -35 72 -40 72 -7
0 37 -30 81 -65 96 -38 15 -108 18 -141 4z"/>
<path d="M4580 1575 l0 -45 40 0 40 0 0 45 0 45 -40 0 -40 0 0 -45z"/>
</g>
</svg>
